<svg width="461.02255859375px" height="125.61248779296875px" xmlns="http://www.w3.org/2000/svg" viewBox="19.48872070312501 12.193756103515625 461.02255859375 125.61248779296875" style="background: rgba(0, 0, 0, 0);" preserveAspectRatio="xMidYMid"><defs><linearGradient id="editing-gradow-gradient" x1="0" x2="1" y1="0.5" y2="0.5" gradientUnits="objectBoundingBox"><stop offset="0" stop-color="#4841e1"></stop><stop offset="1" stop-color="#3cebeb"></stop></linearGradient><filter id="editing-gradow-filter" x="-100%" y="-100%" width="300%" height="300%"><feFlood flood-color="#c8c7bc" result="flood"></feFlood><feComposite operator="in" in2="SourceAlpha" in="flood" result="shadow"></feComposite><feOffset dx="-1.6" dy="-1.6" in="SourceGraphic" result="offset-1"></feOffset><feOffset dx="1.6" dy="1.6" in="shadow" result="offset-2"></feOffset><feMerge><feMergeNode in="offset-2"></feMergeNode><feMergeNode in="offset-1"></feMergeNode></feMerge></filter></defs><g filter="url(#editing-gradow-filter)"><g transform="translate(84.9750018119812, 103.89500045776367)"><path d="M4.48 0L4.48-43.33L12.10-43.33L12.10 0L4.48 0ZM64.13 0L56.90 0L56.90-20.86L56.90-20.86Q56.90-23.55 56.06-25.12L56.06-25.12L56.06-25.12Q55.23-26.69 53.18-26.69L53.18-26.69L53.18-26.69Q51.97-26.69 50.72-26.02L50.72-26.02L50.72-26.02Q49.47-25.34 48.45-24.06L48.45-24.06L48.45-24.06Q47.42-22.78 46.78-20.99L46.78-20.99L46.78-20.99Q46.14-19.20 46.14-17.02L46.14-17.02L46.14 0L38.91 0L38.91-20.86L38.91-20.86Q38.91-23.55 38.08-25.12L38.08-25.12L38.08-25.12Q37.25-26.69 35.20-26.69L35.20-26.69L35.20-26.69Q33.92-26.69 32.67-25.95L32.67-25.95L32.67-25.95Q31.42-25.22 30.43-23.81L30.43-23.81L30.43-23.81Q29.44-22.40 28.83-20.38L28.83-20.38L28.83-20.38Q28.22-18.37 28.22-15.87L28.22-15.87L28.22 0L20.93 0L20.93-16.13L20.93-16.13Q20.93-19.97 20.42-22.56L20.42-22.56L20.42-22.56Q19.90-25.15 19.33-26.75L19.33-26.75L19.33-26.75Q18.62-28.61 17.79-29.76L17.79-29.76L23.55-32.06L23.55-32.06Q24.19-31.36 24.83-30.34L24.83-30.34L24.83-30.34Q25.34-29.44 25.86-28.13L25.86-28.13L25.86-28.13Q26.37-26.82 26.69-25.15L26.69-25.15L26.69-25.15Q28.29-28.99 31.20-30.69L31.20-30.69L31.20-30.69Q34.11-32.38 37.38-32.38L37.38-32.38L37.38-32.38Q40.64-32.38 42.46-30.72L42.46-30.72L42.46-30.72Q44.29-29.06 45.18-26.43L45.18-26.43L45.18-26.43Q46.91-29.63 49.63-31.01L49.63-31.01L49.63-31.01Q52.35-32.38 55.36-32.38L55.36-32.38L55.36-32.38Q57.86-32.38 59.55-31.58L59.55-31.58L59.55-31.58Q61.25-30.78 62.24-29.34L62.24-29.34L62.24-29.34Q63.23-27.90 63.68-25.89L63.68-25.89L63.68-25.89Q64.13-23.87 64.13-21.38L64.13-21.38L64.13 0ZM97.86-30.53L97.86-15.42L97.86-15.42Q97.86-11.58 98.34-8.99L98.34-8.99L98.34-8.99Q98.82-6.40 99.39-4.80L99.39-4.80L99.39-4.80Q100.10-2.88 100.93-1.79L100.93-1.79L95.23 0.51L95.23 0.51Q94.40-0.32 93.70-1.47L93.70-1.47L93.70-1.47Q93.12-2.50 92.61-3.94L92.61-3.94L92.61-3.94Q92.10-5.38 91.97-7.36L91.97-7.36L91.97-7.36Q90.88-3.52 88.48-1.57L88.48-1.57L88.48-1.57Q86.08 0.38 81.98 0.38L81.98 0.38L81.98 0.38Q78.98 0.38 76.77-0.74L76.77-0.74L76.77-0.74Q74.56-1.86 73.09-3.94L73.09-3.94L73.09-3.94Q71.62-6.02 70.91-8.96L70.91-8.96L70.91-8.96Q70.21-11.90 70.21-15.49L70.21-15.49L70.21-15.49Q70.21-19.14 71.33-22.24L71.33-22.24L71.33-22.24Q72.45-25.34 74.46-27.58L74.46-27.58L74.46-27.58Q76.48-29.82 79.30-31.10L79.30-31.10L79.30-31.10Q82.11-32.38 85.50-32.38L85.50-32.38L85.50-32.38Q87.42-32.38 89.50-32.10L89.50-32.10L89.50-32.10Q91.58-31.81 93.38-31.49L93.38-31.49L93.38-31.49Q95.17-31.17 96.42-30.88L96.42-30.88L96.42-30.88Q97.66-30.59 97.86-30.53L97.86-30.53ZM83.20-4.74L83.20-4.74Q84.80-4.74 86.14-5.82L86.14-5.82L86.14-5.82Q87.49-6.91 88.48-8.67L88.48-8.67L88.48-8.67Q89.47-10.43 90.02-12.70L90.02-12.70L90.02-12.70Q90.56-14.98 90.56-17.34L90.56-17.34L90.56-26.56L90.56-26.56Q89.92-26.75 88.64-27.01L88.64-27.01L88.64-27.01Q87.36-27.26 86.34-27.26L86.34-27.26L86.34-27.26Q83.90-27.26 82.34-26.43L82.34-26.43L82.34-26.43Q80.77-25.60 79.81-24.13L79.81-24.13L79.81-24.13Q78.85-22.66 78.46-20.61L78.46-20.61L78.46-20.61Q78.08-18.56 78.08-16.13L78.08-16.13L78.08-16.13Q78.08-13.89 78.21-11.84L78.21-11.84L78.21-11.84Q78.34-9.79 78.88-8.19L78.88-8.19L78.88-8.19Q79.42-6.59 80.45-5.66L80.45-5.66L80.45-5.66Q81.47-4.74 83.20-4.74L83.20-4.74ZM109.44 11.20L111.23 5.63L111.23 5.63Q112.19 6.02 113.28 6.43L113.28 6.43L113.28 6.43Q114.37 6.85 115.58 7.23L115.58 7.23L115.58 7.23Q116.80 7.62 118.05 7.87L118.05 7.87L118.05 7.87Q119.30 8.13 120.51 8.13L120.51 8.13L120.51 8.13Q124.10 8.13 125.70 5.98L125.70 5.98L125.70 5.98Q127.30 3.84 127.30 0.45L127.30 0.45L127.30 0.45Q127.30-2.88 125.89-6.27L125.89-6.27L125.89-6.27Q124.80-3.01 122.46-1.31L122.46-1.31L122.46-1.31Q120.13 0.38 116.29 0.38L116.29 0.38L116.29 0.38Q113.28 0.38 111.07-0.74L111.07-0.74L111.07-0.74Q108.86-1.86 107.39-3.94L107.39-3.94L107.39-3.94Q105.92-6.02 105.22-8.96L105.22-8.96L105.22-8.96Q104.51-11.90 104.51-15.49L104.51-15.49L104.51-15.49Q104.51-19.14 105.63-22.24L105.63-22.24L105.63-22.24Q106.75-25.34 108.77-27.58L108.77-27.58L108.77-27.58Q110.78-29.82 113.60-31.10L113.60-31.10L113.60-31.10Q116.42-32.38 119.81-32.38L119.81-32.38L119.81-32.38Q121.34-32.38 123.10-32.19L123.10-32.19L123.10-32.19Q124.86-32 126.56-31.71L126.56-31.71L126.56-31.71Q128.26-31.42 129.76-31.10L129.76-31.10L129.76-31.10Q131.26-30.78 132.35-30.53L132.35-30.53L132.03-12.93L132.03-12.93Q131.97-11.01 132.26-9.41L132.26-9.41L132.26-9.41Q132.54-7.81 132.93-6.24L132.93-6.24L132.93-6.24Q133.31-4.67 133.63-3.07L133.63-3.07L133.63-3.07Q133.95-1.47 133.95 0.45L133.95 0.45L133.95 0.45Q133.95 7.23 130.50 10.56L130.50 10.56L130.50 10.56Q127.04 13.89 121.15 13.89L121.15 13.89L121.15 13.89Q119.23 13.89 117.31 13.54L117.31 13.54L117.31 13.54Q115.39 13.18 113.76 12.74L113.76 12.74L113.76 12.74Q112.13 12.29 110.98 11.84L110.98 11.84L110.98 11.84Q109.82 11.39 109.44 11.20L109.44 11.20ZM117.50-4.74L117.50-4.74Q119.04-4.74 120.35-5.76L120.35-5.76L120.35-5.76Q121.66-6.78 122.69-8.48L122.69-8.48L122.69-8.48Q123.71-10.18 124.29-12.35L124.29-12.35L124.29-12.35Q124.86-14.53 124.86-16.83L124.86-16.83L124.86-26.56L124.86-26.56Q124.22-26.75 122.94-27.01L122.94-27.01L122.94-27.01Q121.66-27.26 120.64-27.26L120.64-27.26L120.64-27.26Q118.21-27.26 116.64-26.43L116.64-26.43L116.64-26.43Q115.07-25.60 114.11-24.13L114.11-24.13L114.11-24.13Q113.15-22.66 112.77-20.61L112.77-20.61L112.77-20.61Q112.38-18.56 112.38-16.13L112.38-16.13L112.38-16.13Q112.38-13.89 112.51-11.84L112.51-11.84L112.51-11.84Q112.64-9.79 113.18-8.19L113.18-8.19L113.18-8.19Q113.73-6.59 114.75-5.66L114.75-5.66L114.75-5.66Q115.78-4.74 117.50-4.74L117.50-4.74ZM138.50-15.17L138.50-15.17Q138.50-19.46 139.68-22.72L139.68-22.72L139.68-22.72Q140.86-25.98 142.94-28.19L142.94-28.19L142.94-28.19Q145.02-30.40 147.84-31.52L147.84-31.52L147.84-31.52Q150.66-32.64 153.92-32.64L153.92-32.64L153.92-32.64Q156.80-32.64 158.82-31.94L158.82-31.94L158.82-31.94Q160.83-31.23 162.11-30.02L162.11-30.02L162.11-30.02Q163.39-28.80 164-27.14L164-27.14L164-27.14Q164.61-25.47 164.61-23.55L164.61-23.55L164.61-23.55Q164.61-21.25 163.33-19.17L163.33-19.17L163.33-19.17Q162.05-17.09 159.65-15.52L159.65-15.52L159.65-15.52Q157.25-13.95 153.86-13.02L153.86-13.02L153.86-13.02Q150.46-12.10 146.24-12.03L146.24-12.03L146.24-12.03Q146.43-10.56 146.85-9.25L146.85-9.25L146.85-9.25Q147.26-7.94 148.06-6.94L148.06-6.94L148.06-6.94Q148.86-5.95 150.14-5.38L150.14-5.38L150.14-5.38Q151.42-4.80 153.34-4.80L153.34-4.80L153.34-4.80Q154.75-4.80 156.35-5.12L156.35-5.12L156.35-5.12Q157.95-5.44 159.30-5.89L159.30-5.89L159.30-5.89Q160.90-6.40 162.43-7.04L162.43-7.04L164.35-2.50L164.35-2.50Q162.69-1.66 160.77-1.02L160.77-1.02L160.77-1.02Q159.10-0.45 156.93 0L156.93 0L156.93 0Q154.75 0.45 152.32 0.45L152.32 0.45L152.32 0.45Q148.61 0.45 145.98-0.67L145.98-0.67L145.98-0.67Q143.36-1.79 141.70-3.84L141.70-3.84L141.70-3.84Q140.03-5.89 139.26-8.77L139.26-8.77L139.26-8.77Q138.50-11.65 138.50-15.17L138.50-15.17ZM153.34-27.65L153.34-27.65Q151.23-27.65 149.86-26.66L149.86-26.66L149.86-26.66Q148.48-25.66 147.65-24.10L147.65-24.10L147.65-24.10Q146.82-22.53 146.46-20.58L146.46-20.58L146.46-20.58Q146.11-18.62 146.05-16.64L146.05-16.64L146.05-16.64Q149.12-16.77 151.26-17.44L151.26-17.44L151.26-17.44Q153.41-18.11 154.75-19.10L154.75-19.10L154.75-19.10Q156.10-20.10 156.70-21.25L156.70-21.25L156.70-21.25Q157.31-22.40 157.31-23.55L157.31-23.55L157.31-23.55Q157.31-25.41 156.22-26.53L156.22-26.53L156.22-26.53Q155.14-27.65 153.34-27.65L153.34-27.65ZM168.45-17.79L168.45-23.10L186.56-23.10L186.56-17.79L168.45-17.79ZM206.72-43.90L206.72-43.90L206.72-43.90Q208.96-43.90 211.01-43.49L211.01-43.49L211.01-43.49Q213.06-43.07 214.75-42.53L214.75-42.53L214.75-42.53Q216.45-41.98 217.63-41.41L217.63-41.41L217.63-41.41Q218.82-40.83 219.26-40.51L219.26-40.51L216.13-35.01L215.30-35.46L215.30-35.46Q214.46-35.90 213.12-36.48L213.12-36.48L213.12-36.48Q211.78-37.06 210.18-37.50L210.18-37.50L210.18-37.50Q208.58-37.95 207.10-37.95L207.10-37.95L207.10-37.95Q204.80-37.95 203.10-36.86L203.10-36.86L203.10-36.86Q201.41-35.78 201.41-33.47L201.41-33.47L201.41-33.47Q201.41-30.59 203.26-28.77L203.26-28.77L203.26-28.77Q205.12-26.94 209.09-25.41L209.09-25.41L209.09-25.41Q211.65-24.38 213.66-23.26L213.66-23.26L213.66-23.26Q215.68-22.14 217.09-20.67L217.09-20.67L217.09-20.67Q218.50-19.20 219.23-17.28L219.23-17.28L219.23-17.28Q219.97-15.36 219.97-12.67L219.97-12.67L219.97-12.67Q219.97-10.24 219.04-7.87L219.04-7.87L219.04-7.87Q218.11-5.50 216.29-3.68L216.29-3.68L216.29-3.68Q214.46-1.86 211.78-0.74L211.78-0.74L211.78-0.74Q209.09 0.38 205.57 0.38L205.57 0.38L205.57 0.38Q203.07 0.38 200.83-0.13L200.83-0.13L200.83-0.13Q198.59-0.64 196.77-1.31L196.77-1.31L196.77-1.31Q194.94-1.98 193.63-2.69L193.63-2.69L193.63-2.69Q192.32-3.39 191.68-3.78L191.68-3.78L194.37-9.66L195.52-9.02L195.52-9.02Q196.67-8.38 198.34-7.62L198.34-7.62L198.34-7.62Q200-6.85 201.86-6.21L201.86-6.21L201.86-6.21Q203.71-5.57 205.06-5.57L205.06-5.57L205.06-5.57Q208.45-5.57 210.11-7.23L210.11-7.23L210.11-7.23Q211.78-8.90 211.78-11.90L211.78-11.90L211.78-11.90Q211.78-13.31 211.33-14.37L211.33-14.37L211.33-14.37Q210.88-15.42 210.05-16.19L210.05-16.19L210.05-16.19Q209.22-16.96 208.03-17.57L208.03-17.57L208.03-17.57Q206.85-18.18 205.38-18.75L205.38-18.75L205.38-18.75Q202.50-19.97 200.22-21.18L200.22-21.18L200.22-21.18Q197.95-22.40 196.35-23.97L196.35-23.97L196.35-23.97Q194.75-25.54 193.92-27.55L193.92-27.55L193.92-27.55Q193.09-29.57 193.09-32.38L193.09-32.38L193.09-32.38Q193.09-34.75 194.11-36.83L194.11-36.83L194.11-36.83Q195.14-38.91 196.93-40.48L196.93-40.48L196.93-40.48Q198.72-42.05 201.22-42.98L201.22-42.98L201.22-42.98Q203.71-43.90 206.72-43.90ZM220.93-26.69L220.93-31.87L226.69-31.87L227.97-39.36L233.98-40.70L233.98-31.87L241.86-31.87L240.96-26.69L233.98-26.69L233.98-7.74L233.98-7.74Q233.98-6.08 234.88-5.60L234.88-5.60L234.88-5.60Q235.78-5.12 236.86-5.12L236.86-5.12L236.86-5.12Q237.76-5.12 238.66-5.25L238.66-5.25L238.66-5.25Q239.55-5.38 240.26-5.57L240.26-5.57L240.26-5.57Q241.09-5.76 241.86-6.02L241.86-6.02L243.07-1.22L242.50-1.02L242.50-1.02Q241.92-0.77 240.80-0.48L240.80-0.48L240.80-0.48Q239.68-0.19 238.18 0.03L238.18 0.03L238.18 0.03Q236.67 0.26 234.88 0.26L234.88 0.26L234.88 0.26Q233.09 0.26 231.58-0.13L231.58-0.13L231.58-0.13Q230.08-0.51 228.99-1.38L228.99-1.38L228.99-1.38Q227.90-2.24 227.30-3.58L227.30-3.58L227.30-3.58Q226.69-4.93 226.69-6.91L226.69-6.91L226.69-26.69L220.93-26.69ZM259.26-32.64L259.26-32.64Q266.62-32.64 269.95-28.29L269.95-28.29L269.95-28.29Q273.28-23.94 273.28-16.32L273.28-16.32L273.28-16.32Q273.28-12.74 272.38-9.63L272.38-9.63L272.38-9.63Q271.49-6.53 269.66-4.26L269.66-4.26L269.66-4.26Q267.84-1.98 265.09-0.67L265.09-0.67L265.09-0.67Q262.34 0.64 258.69 0.64L258.69 0.64L258.69 0.64Q255.04 0.64 252.38-0.48L252.38-0.48L252.38-0.48Q249.73-1.60 248-3.71L248-3.71L248-3.71Q246.27-5.82 245.47-8.83L245.47-8.83L245.47-8.83Q244.67-11.84 244.67-15.62L244.67-15.62L244.67-15.62Q244.67-19.26 245.57-22.37L245.57-22.37L245.57-22.37Q246.46-25.47 248.29-27.74L248.29-27.74L248.29-27.74Q250.11-30.02 252.86-31.33L252.86-31.33L252.86-31.33Q255.62-32.64 259.26-32.64L259.26-32.64ZM258.62-27.26L258.62-27.26Q256.77-27.26 255.58-26.43L255.58-26.43L255.58-26.43Q254.40-25.60 253.73-24.10L253.73-24.10L253.73-24.10Q253.06-22.59 252.80-20.58L252.80-20.58L252.80-20.58Q252.54-18.56 252.54-16.26L252.54-16.26L252.54-16.26Q252.54-13.89 252.83-11.78L252.83-11.78L252.83-11.78Q253.12-9.66 253.89-8.10L253.89-8.10L253.89-8.10Q254.66-6.53 255.97-5.63L255.97-5.63L255.97-5.63Q257.28-4.74 259.33-4.74L259.33-4.74L259.33-4.74Q261.18-4.74 262.37-5.57L262.37-5.57L262.37-5.57Q263.55-6.40 264.22-7.90L264.22-7.90L264.22-7.90Q264.90-9.41 265.15-11.39L265.15-11.39L265.15-11.39Q265.41-13.38 265.41-15.68L265.41-15.68L265.41-15.68Q265.41-18.05 265.12-20.16L265.12-20.16L265.12-20.16Q264.83-22.27 264.06-23.87L264.06-23.87L264.06-23.87Q263.30-25.47 261.98-26.37L261.98-26.37L261.98-26.37Q260.67-27.26 258.62-27.26L258.62-27.26ZM293.95-25.22L293.95-25.22Q292.80-25.22 291.65-24.64L291.65-24.64L291.65-24.64Q290.50-24.06 289.60-23.07L289.60-23.07L289.60-23.07Q288.70-22.08 288.13-20.67L288.13-20.67L288.13-20.67Q287.55-19.26 287.55-17.54L287.55-17.54L287.55 0L280.26 0L280.26-16.13L280.26-16.13Q280.26-19.97 279.74-22.56L279.74-22.56L279.74-22.56Q279.23-25.15 278.66-26.75L278.66-26.75L278.66-26.75Q277.95-28.61 277.12-29.76L277.12-29.76L282.88-32.06L282.88-32.06Q283.46-31.36 284.10-30.34L284.10-30.34L284.10-30.34Q284.61-29.44 285.12-28.22L285.12-28.22L285.12-28.22Q285.63-27.01 285.95-25.34L285.95-25.34L285.95-25.34Q287.23-29.06 289.66-30.69L289.66-30.69L289.66-30.69Q292.10-32.32 295.17-32.32L295.17-32.32L295.17-32.32Q296.64-32.32 297.92-31.97L297.92-31.97L297.92-31.97Q299.20-31.62 299.14-31.62L299.14-31.62L297.09-24.51L297.09-24.51Q297.15-24.51 296.35-24.86L296.35-24.86L296.35-24.86Q295.55-25.22 293.95-25.22L293.95-25.22ZM299.46-15.17L299.46-15.17Q299.46-19.46 300.64-22.72L300.64-22.72L300.64-22.72Q301.82-25.98 303.90-28.19L303.90-28.19L303.90-28.19Q305.98-30.40 308.80-31.52L308.80-31.52L308.80-31.52Q311.62-32.64 314.88-32.64L314.88-32.64L314.88-32.64Q317.76-32.64 319.78-31.94L319.78-31.94L319.78-31.94Q321.79-31.23 323.07-30.02L323.07-30.02L323.07-30.02Q324.35-28.80 324.96-27.14L324.96-27.14L324.96-27.14Q325.57-25.47 325.57-23.55L325.57-23.55L325.57-23.55Q325.57-21.25 324.29-19.17L324.29-19.17L324.29-19.17Q323.01-17.09 320.61-15.52L320.61-15.52L320.61-15.52Q318.21-13.95 314.82-13.02L314.82-13.02L314.82-13.02Q311.42-12.10 307.20-12.03L307.20-12.03L307.20-12.03Q307.39-10.56 307.81-9.25L307.81-9.25L307.81-9.25Q308.22-7.94 309.02-6.94L309.02-6.94L309.02-6.94Q309.82-5.95 311.10-5.38L311.10-5.38L311.10-5.38Q312.38-4.80 314.30-4.80L314.30-4.80L314.30-4.80Q315.71-4.80 317.31-5.12L317.31-5.12L317.31-5.12Q318.91-5.44 320.26-5.89L320.26-5.89L320.26-5.89Q321.86-6.40 323.39-7.04L323.39-7.04L325.31-2.50L325.31-2.50Q323.65-1.66 321.73-1.02L321.73-1.02L321.73-1.02Q320.06-0.45 317.89 0L317.89 0L317.89 0Q315.71 0.45 313.28 0.45L313.28 0.45L313.28 0.45Q309.57 0.45 306.94-0.67L306.94-0.67L306.94-0.67Q304.32-1.79 302.66-3.84L302.66-3.84L302.66-3.84Q300.99-5.89 300.22-8.77L300.22-8.77L300.22-8.77Q299.46-11.65 299.46-15.17L299.46-15.17ZM314.30-27.65L314.30-27.65Q312.19-27.65 310.82-26.66L310.82-26.66L310.82-26.66Q309.44-25.66 308.61-24.10L308.61-24.10L308.61-24.10Q307.78-22.53 307.42-20.58L307.42-20.58L307.42-20.58Q307.07-18.62 307.01-16.64L307.01-16.64L307.01-16.64Q310.08-16.77 312.22-17.44L312.22-17.44L312.22-17.44Q314.37-18.11 315.71-19.10L315.71-19.10L315.71-19.10Q317.06-20.10 317.66-21.25L317.66-21.25L317.66-21.25Q318.27-22.40 318.27-23.55L318.27-23.55L318.27-23.55Q318.27-25.41 317.18-26.53L317.18-26.53L317.18-26.53Q316.10-27.65 314.30-27.65L314.30-27.65Z" fill="url(#editing-gradow-gradient)"></path></g></g><style>text {
  font-size: 64px;
  font-family: Arial Black;
  dominant-baseline: central;
  text-anchor: middle;
}</style></svg>