<svg width="86.68247070312499px" height="125.6123046875px" xmlns="http://www.w3.org/2000/svg" viewBox="206.6587646484375 12.19384765625 86.68247070312499 125.6123046875" style="background: rgba(0, 0, 0, 0);" preserveAspectRatio="xMidYMid"><defs><linearGradient id="editing-gradow-gradient" x1="0" x2="1" y1="0.5" y2="0.5" gradientUnits="objectBoundingBox"><stop offset="0" stop-color="#4841e1"></stop><stop offset="1" stop-color="#3cebeb"></stop></linearGradient><filter id="editing-gradow-filter" x="-100%" y="-100%" width="300%" height="300%"><feFlood flood-color="#c8c7bc" result="flood"></feFlood><feComposite operator="in" in2="SourceAlpha" in="flood" result="shadow"></feComposite><feOffset dx="-1.6" dy="-1.6" in="SourceGraphic" result="offset-1"></feOffset><feOffset dx="1.6" dy="1.6" in="shadow" result="offset-2"></feOffset><feMerge><feMergeNode in="offset-2"></feMergeNode><feMergeNode in="offset-1"></feMergeNode></feMerge></filter></defs><g filter="url(#editing-gradow-filter)"><g transform="translate(224.37000036239624, 97.14000129699707)"><path d="M4.48 0L4.48-43.33L12.10-43.33L12.10 0L4.48 0ZM33.54-43.90L33.54-43.90L33.54-43.90Q35.78-43.90 37.82-43.49L37.82-43.49L37.82-43.49Q39.87-43.07 41.57-42.53L41.57-42.53L41.57-42.53Q43.26-41.98 44.45-41.41L44.45-41.41L44.45-41.41Q45.63-40.83 46.08-40.51L46.08-40.51L42.94-35.01L42.11-35.46L42.11-35.46Q41.28-35.90 39.94-36.48L39.94-36.48L39.94-36.48Q38.59-37.06 36.99-37.50L36.99-37.50L36.99-37.50Q35.39-37.95 33.92-37.95L33.92-37.95L33.92-37.95Q31.62-37.95 29.92-36.86L29.92-36.86L29.92-36.86Q28.22-35.78 28.22-33.47L28.22-33.47L28.22-33.47Q28.22-30.59 30.08-28.77L30.08-28.77L30.08-28.77Q31.94-26.94 35.90-25.41L35.90-25.41L35.90-25.41Q38.46-24.38 40.48-23.26L40.48-23.26L40.48-23.26Q42.50-22.14 43.90-20.67L43.90-20.67L43.90-20.67Q45.31-19.20 46.05-17.28L46.05-17.28L46.05-17.28Q46.78-15.36 46.78-12.67L46.78-12.67L46.78-12.67Q46.78-10.24 45.86-7.87L45.86-7.87L45.86-7.87Q44.93-5.50 43.10-3.68L43.10-3.68L43.10-3.68Q41.28-1.86 38.59-0.74L38.59-0.74L38.59-0.74Q35.90 0.38 32.38 0.38L32.38 0.38L32.38 0.38Q29.89 0.38 27.65-0.13L27.65-0.13L27.65-0.13Q25.41-0.64 23.58-1.31L23.58-1.31L23.58-1.31Q21.76-1.98 20.45-2.69L20.45-2.69L20.45-2.69Q19.14-3.39 18.50-3.78L18.50-3.78L21.18-9.66L22.34-9.02L22.34-9.02Q23.49-8.38 25.15-7.62L25.15-7.62L25.15-7.62Q26.82-6.85 28.67-6.21L28.67-6.21L28.67-6.21Q30.53-5.57 31.87-5.57L31.87-5.57L31.87-5.57Q35.26-5.57 36.93-7.23L36.93-7.23L36.93-7.23Q38.59-8.90 38.59-11.90L38.59-11.90L38.59-11.90Q38.59-13.31 38.14-14.37L38.14-14.37L38.14-14.37Q37.70-15.42 36.86-16.19L36.86-16.19L36.86-16.19Q36.03-16.96 34.85-17.57L34.85-17.57L34.85-17.57Q33.66-18.18 32.19-18.75L32.19-18.75L32.19-18.75Q29.31-19.97 27.04-21.18L27.04-21.18L27.04-21.18Q24.77-22.40 23.17-23.97L23.17-23.97L23.17-23.97Q21.57-25.54 20.74-27.55L20.74-27.55L20.74-27.55Q19.90-29.57 19.90-32.38L19.90-32.38L19.90-32.38Q19.90-34.75 20.93-36.83L20.93-36.83L20.93-36.83Q21.95-38.91 23.74-40.48L23.74-40.48L23.74-40.48Q25.54-42.05 28.03-42.98L28.03-42.98L28.03-42.98Q30.53-43.90 33.54-43.90Z" fill="url(#editing-gradow-gradient)"></path></g></g><style>text {
  font-size: 64px;
  font-family: Arial Black;
  dominant-baseline: central;
  text-anchor: middle;
}</style></svg>